# Blender v3.0.0 OBJ File: ''
# www.blender.org
o Circle_Circle.001
v 0.000000 0.000000 0.000000
v -0.500000 0.000000 0.000000
v -0.499924 0.008726 0.000000
v -0.499696 0.017450 0.000000
v -0.499315 0.026168 0.000000
v -0.498783 0.034878 0.000000
v -0.498098 0.043578 0.000000
v -0.497261 0.052264 0.000000
v -0.496274 0.060935 0.000000
v -0.495135 0.069587 0.000000
v -0.493845 0.078217 0.000000
v -0.492404 0.086824 0.000000
v -0.490814 0.095405 0.000000
v -0.489074 0.103956 0.000000
v -0.487186 0.112476 0.000000
v -0.485148 0.120961 0.000000
v -0.482963 0.129410 0.000000
v -0.480631 0.137819 0.000000
v -0.478153 0.146186 0.000000
v -0.475529 0.154509 0.000000
v -0.472760 0.162784 0.000000
v -0.469847 0.171010 0.000000
v -0.466791 0.179184 0.000000
v -0.463592 0.187303 0.000000
v -0.460253 0.195366 0.000000
v -0.456773 0.203369 0.000000
v -0.453154 0.211309 0.000000
v -0.449397 0.219186 0.000000
v -0.445504 0.226995 0.000000
v -0.441474 0.234736 0.000000
v -0.437310 0.242405 0.000000
v -0.433013 0.250000 0.000000
v -0.428584 0.257519 0.000000
v -0.424024 0.264960 0.000000
v -0.419336 0.272320 0.000000
v -0.414519 0.279597 0.000000
v -0.409576 0.286788 0.000000
v -0.404509 0.293893 0.000000
v -0.399318 0.300908 0.000000
v -0.394006 0.307831 0.000000
v -0.388573 0.314660 0.000000
v -0.383023 0.321394 0.000000
v -0.377355 0.328030 0.000000
v -0.371573 0.334566 0.000000
v -0.365677 0.341000 0.000000
v -0.359670 0.347330 0.000000
v -0.353554 0.353554 0.000000
v -0.347330 0.359670 0.000000
v -0.341000 0.365677 0.000000
v -0.334566 0.371573 0.000000
v -0.328030 0.377355 0.000000
v -0.321394 0.383023 0.000000
v -0.314660 0.388573 0.000000
v -0.307831 0.394006 0.000000
v -0.300908 0.399318 0.000000
v -0.293893 0.404509 0.000000
v -0.286788 0.409576 0.000000
v -0.279597 0.414519 0.000000
v -0.272320 0.419336 0.000000
v -0.264960 0.424024 0.000000
v -0.257519 0.428584 0.000000
v -0.250000 0.433013 0.000000
v -0.242405 0.437310 0.000000
v -0.234736 0.441474 0.000000
v -0.226995 0.445504 0.000000
v -0.219186 0.449397 0.000000
v -0.211309 0.453154 0.000000
v -0.203368 0.456773 0.000000
v -0.195366 0.460253 0.000000
v -0.187303 0.463592 0.000000
v -0.179184 0.466791 0.000000
v -0.171010 0.469847 0.000000
v -0.162784 0.472760 0.000000
v -0.154509 0.475529 0.000000
v -0.146186 0.478153 0.000000
v -0.137819 0.480631 0.000000
v -0.129410 0.482963 0.000000
v -0.120961 0.485148 0.000000
v -0.112476 0.487186 0.000000
v -0.103956 0.489074 0.000000
v -0.095405 0.490814 0.000000
v -0.086824 0.492404 0.000000
v -0.078217 0.493845 0.000000
v -0.069587 0.495135 0.000000
v -0.060935 0.496274 0.000000
v -0.052264 0.497261 0.000000
v -0.043578 0.498098 0.000000
v -0.034878 0.498783 0.000000
v -0.026168 0.499315 0.000000
v -0.017450 0.499696 0.000000
v -0.008726 0.499924 0.000000
v 0.000000 0.500000 0.000000
v 0.008726 0.499924 0.000000
v 0.017450 0.499696 0.000000
v 0.026168 0.499315 0.000000
v 0.034878 0.498783 0.000000
v 0.043578 0.498098 0.000000
v 0.052264 0.497261 0.000000
v 0.060935 0.496274 0.000000
v 0.069587 0.495135 0.000000
v 0.078217 0.493845 0.000000
v 0.086824 0.492404 0.000000
v 0.095405 0.490814 0.000000
v 0.103956 0.489074 0.000000
v 0.112476 0.487186 0.000000
v 0.120961 0.485148 0.000000
v 0.129410 0.482963 0.000000
v 0.137819 0.480631 0.000000
v 0.146186 0.478153 0.000000
v 0.154509 0.475529 0.000000
v 0.162784 0.472760 0.000000
v 0.171010 0.469847 0.000000
v 0.179184 0.466791 0.000000
v 0.187303 0.463592 0.000000
v 0.195366 0.460253 0.000000
v 0.203369 0.456773 0.000000
v 0.211309 0.453154 0.000000
v 0.219186 0.449397 0.000000
v 0.226996 0.445504 0.000000
v 0.234736 0.441474 0.000000
v 0.242405 0.437310 0.000000
v 0.250000 0.433013 0.000000
v 0.257519 0.428584 0.000000
v 0.264960 0.424024 0.000000
v 0.272320 0.419336 0.000000
v 0.279597 0.414519 0.000000
v 0.286788 0.409576 0.000000
v 0.293893 0.404509 0.000000
v 0.300908 0.399318 0.000000
v 0.307831 0.394006 0.000000
v 0.314660 0.388573 0.000000
v 0.321394 0.383023 0.000000
v 0.328030 0.377355 0.000000
v 0.334566 0.371573 0.000000
v 0.340999 0.365677 0.000000
v 0.347330 0.359670 0.000000
v 0.353554 0.353554 0.000000
v 0.359670 0.347330 0.000000
v 0.365677 0.340999 0.000000
v 0.371573 0.334566 0.000000
v 0.377355 0.328030 0.000000
v 0.383023 0.321394 0.000000
v 0.388573 0.314661 0.000000
v 0.394006 0.307831 0.000000
v 0.399318 0.300908 0.000000
v 0.404509 0.293893 0.000000
v 0.409576 0.286788 0.000000
v 0.414519 0.279597 0.000000
v 0.419336 0.272320 0.000000
v 0.424024 0.264960 0.000000
v 0.428584 0.257519 0.000000
v 0.433013 0.250000 0.000000
v 0.437310 0.242405 0.000000
v 0.441474 0.234736 0.000000
v 0.445504 0.226996 0.000000
v 0.449397 0.219186 0.000000
v 0.453154 0.211309 0.000000
v 0.456773 0.203368 0.000000
v 0.460253 0.195366 0.000000
v 0.463592 0.187303 0.000000
v 0.466791 0.179184 0.000000
v 0.469847 0.171010 0.000000
v 0.472760 0.162784 0.000000
v 0.475529 0.154509 0.000000
v 0.478153 0.146186 0.000000
v 0.480631 0.137819 0.000000
v 0.482963 0.129410 0.000000
v 0.485148 0.120961 0.000000
v 0.487186 0.112476 0.000000
v 0.489074 0.103956 0.000000
v 0.490814 0.095405 0.000000
v 0.492404 0.086824 0.000000
v 0.493845 0.078217 0.000000
v 0.495135 0.069587 0.000000
v 0.496274 0.060935 0.000000
v 0.497261 0.052264 0.000000
v 0.498098 0.043578 0.000000
v 0.498783 0.034878 0.000000
v 0.499315 0.026168 0.000000
v 0.499696 0.017450 0.000000
v 0.499924 0.008726 0.000000
v 0.500000 -0.000000 0.000000
v 0.499924 -0.008726 -0.000000
v 0.499696 -0.017450 -0.000000
v 0.499315 -0.026168 -0.000000
v 0.498783 -0.034878 -0.000000
v 0.498098 -0.043578 -0.000000
v 0.497261 -0.052264 -0.000000
v 0.496274 -0.060935 -0.000000
v 0.495135 -0.069587 -0.000000
v 0.493845 -0.078217 -0.000000
v 0.492404 -0.086824 -0.000000
v 0.490814 -0.095405 -0.000000
v 0.489074 -0.103956 -0.000000
v 0.487186 -0.112476 -0.000000
v 0.485148 -0.120961 -0.000000
v 0.482963 -0.129410 -0.000000
v 0.480631 -0.137819 -0.000000
v 0.478153 -0.146186 -0.000000
v 0.475529 -0.154509 -0.000000
v 0.472760 -0.162784 -0.000000
v 0.469847 -0.171010 -0.000000
v 0.466791 -0.179184 -0.000000
v 0.463592 -0.187303 -0.000000
v 0.460253 -0.195366 -0.000000
v 0.456773 -0.203369 -0.000000
v 0.453154 -0.211309 -0.000000
v 0.449397 -0.219186 -0.000000
v 0.445504 -0.226995 -0.000000
v 0.441474 -0.234736 -0.000000
v 0.437310 -0.242405 -0.000000
v 0.433013 -0.250000 -0.000000
v 0.428584 -0.257519 -0.000000
v 0.424024 -0.264960 -0.000000
v 0.419336 -0.272320 -0.000000
v 0.414519 -0.279597 -0.000000
v 0.409576 -0.286788 -0.000000
v 0.404509 -0.293893 -0.000000
v 0.399318 -0.300908 -0.000000
v 0.394006 -0.307831 -0.000000
v 0.388573 -0.314661 -0.000000
v 0.383023 -0.321394 -0.000000
v 0.377355 -0.328030 -0.000000
v 0.371573 -0.334566 -0.000000
v 0.365677 -0.340999 -0.000000
v 0.359670 -0.347330 -0.000000
v 0.353554 -0.353554 -0.000000
v 0.347329 -0.359670 -0.000000
v 0.341000 -0.365677 -0.000000
v 0.334566 -0.371573 -0.000000
v 0.328030 -0.377355 -0.000000
v 0.321394 -0.383023 -0.000000
v 0.314660 -0.388573 -0.000000
v 0.307831 -0.394006 -0.000000
v 0.300908 -0.399318 -0.000000
v 0.293893 -0.404509 -0.000000
v 0.286788 -0.409576 -0.000000
v 0.279597 -0.414519 -0.000000
v 0.272320 -0.419336 -0.000000
v 0.264960 -0.424024 -0.000000
v 0.257519 -0.428584 -0.000000
v 0.250000 -0.433013 -0.000000
v 0.242405 -0.437310 -0.000000
v 0.234736 -0.441474 -0.000000
v 0.226996 -0.445504 -0.000000
v 0.219186 -0.449397 -0.000000
v 0.211309 -0.453154 -0.000000
v 0.203369 -0.456773 -0.000000
v 0.195366 -0.460253 -0.000000
v 0.187304 -0.463592 -0.000000
v 0.179184 -0.466791 -0.000000
v 0.171010 -0.469847 -0.000000
v 0.162784 -0.472760 -0.000000
v 0.154509 -0.475529 -0.000000
v 0.146186 -0.478153 -0.000000
v 0.137819 -0.480631 -0.000000
v 0.129410 -0.482963 -0.000000
v 0.120961 -0.485148 -0.000000
v 0.112476 -0.487186 -0.000000
v 0.103956 -0.489074 -0.000000
v 0.095405 -0.490814 -0.000000
v 0.086824 -0.492404 -0.000000
v 0.078217 -0.493845 -0.000000
v 0.069587 -0.495135 -0.000000
v 0.060935 -0.496274 -0.000000
v 0.052264 -0.497261 -0.000000
v 0.043578 -0.498098 -0.000000
v 0.034878 -0.498782 -0.000000
v 0.026168 -0.499315 -0.000000
v 0.017450 -0.499696 -0.000000
v 0.008726 -0.499924 -0.000000
v -0.000000 -0.500000 -0.000000
v -0.008726 -0.499924 -0.000000
v -0.017450 -0.499696 -0.000000
v -0.026168 -0.499315 -0.000000
v -0.034878 -0.498782 -0.000000
v -0.043578 -0.498098 -0.000000
v -0.052264 -0.497261 -0.000000
v -0.060935 -0.496274 -0.000000
v -0.069587 -0.495135 -0.000000
v -0.078217 -0.493845 -0.000000
v -0.086824 -0.492404 -0.000000
v -0.095405 -0.490814 -0.000000
v -0.103956 -0.489074 -0.000000
v -0.112476 -0.487185 -0.000000
v -0.120961 -0.485148 -0.000000
v -0.129410 -0.482963 -0.000000
v -0.137819 -0.480631 -0.000000
v -0.146186 -0.478153 -0.000000
v -0.154509 -0.475529 -0.000000
v -0.162784 -0.472760 -0.000000
v -0.171010 -0.469847 -0.000000
v -0.179184 -0.466791 -0.000000
v -0.187304 -0.463592 -0.000000
v -0.195366 -0.460253 -0.000000
v -0.203369 -0.456773 -0.000000
v -0.211309 -0.453154 -0.000000
v -0.219186 -0.449397 -0.000000
v -0.226996 -0.445504 -0.000000
v -0.234736 -0.441474 -0.000000
v -0.242405 -0.437310 -0.000000
v -0.250000 -0.433013 -0.000000
v -0.257519 -0.428584 -0.000000
v -0.264960 -0.424024 -0.000000
v -0.272320 -0.419336 -0.000000
v -0.279597 -0.414519 -0.000000
v -0.286788 -0.409576 -0.000000
v -0.293893 -0.404509 -0.000000
v -0.300908 -0.399318 -0.000000
v -0.307831 -0.394006 -0.000000
v -0.314660 -0.388573 -0.000000
v -0.321394 -0.383023 -0.000000
v -0.328030 -0.377355 -0.000000
v -0.334566 -0.371573 -0.000000
v -0.341000 -0.365677 -0.000000
v -0.347329 -0.359670 -0.000000
v -0.353554 -0.353554 -0.000000
v -0.359670 -0.347329 -0.000000
v -0.365677 -0.340999 -0.000000
v -0.371573 -0.334566 -0.000000
v -0.377355 -0.328030 -0.000000
v -0.383023 -0.321394 -0.000000
v -0.388573 -0.314660 -0.000000
v -0.394006 -0.307831 -0.000000
v -0.399318 -0.300908 -0.000000
v -0.404509 -0.293893 -0.000000
v -0.409576 -0.286789 -0.000000
v -0.414519 -0.279597 -0.000000
v -0.419336 -0.272320 -0.000000
v -0.424024 -0.264960 -0.000000
v -0.428584 -0.257519 -0.000000
v -0.433013 -0.250000 -0.000000
v -0.437310 -0.242405 -0.000000
v -0.441474 -0.234736 -0.000000
v -0.445504 -0.226995 -0.000000
v -0.449397 -0.219186 -0.000000
v -0.453154 -0.211309 -0.000000
v -0.456773 -0.203368 -0.000000
v -0.460253 -0.195366 -0.000000
v -0.463592 -0.187303 -0.000000
v -0.466791 -0.179184 -0.000000
v -0.469847 -0.171010 -0.000000
v -0.472760 -0.162784 -0.000000
v -0.475529 -0.154509 -0.000000
v -0.478153 -0.146186 -0.000000
v -0.480631 -0.137819 -0.000000
v -0.482963 -0.129410 -0.000000
v -0.485148 -0.120961 -0.000000
v -0.487186 -0.112476 -0.000000
v -0.489074 -0.103956 -0.000000
v -0.490814 -0.095405 -0.000000
v -0.492404 -0.086824 -0.000000
v -0.493845 -0.078217 -0.000000
v -0.495135 -0.069587 -0.000000
v -0.496274 -0.060935 -0.000000
v -0.497261 -0.052264 -0.000000
v -0.498098 -0.043578 -0.000000
v -0.498783 -0.034878 -0.000000
v -0.499315 -0.026168 -0.000000
v -0.499696 -0.017450 -0.000000
v -0.499924 -0.008726 -0.000000
vn -0.0000 -0.0000 1.0000
s 1
f 1//1 3//1 2//1
f 1//1 4//1 3//1
f 1//1 5//1 4//1
f 1//1 6//1 5//1
f 1//1 7//1 6//1
f 1//1 8//1 7//1
f 1//1 9//1 8//1
f 1//1 10//1 9//1
f 1//1 11//1 10//1
f 1//1 12//1 11//1
f 1//1 13//1 12//1
f 1//1 14//1 13//1
f 1//1 15//1 14//1
f 1//1 16//1 15//1
f 1//1 17//1 16//1
f 1//1 18//1 17//1
f 1//1 19//1 18//1
f 1//1 20//1 19//1
f 1//1 21//1 20//1
f 1//1 22//1 21//1
f 1//1 23//1 22//1
f 1//1 24//1 23//1
f 1//1 25//1 24//1
f 1//1 26//1 25//1
f 1//1 27//1 26//1
f 1//1 28//1 27//1
f 1//1 29//1 28//1
f 1//1 30//1 29//1
f 1//1 31//1 30//1
f 1//1 32//1 31//1
f 1//1 33//1 32//1
f 1//1 34//1 33//1
f 1//1 35//1 34//1
f 1//1 36//1 35//1
f 1//1 37//1 36//1
f 1//1 38//1 37//1
f 1//1 39//1 38//1
f 1//1 40//1 39//1
f 1//1 41//1 40//1
f 1//1 42//1 41//1
f 1//1 43//1 42//1
f 1//1 44//1 43//1
f 1//1 45//1 44//1
f 1//1 46//1 45//1
f 1//1 47//1 46//1
f 1//1 48//1 47//1
f 1//1 49//1 48//1
f 1//1 50//1 49//1
f 1//1 51//1 50//1
f 1//1 52//1 51//1
f 1//1 53//1 52//1
f 1//1 54//1 53//1
f 1//1 55//1 54//1
f 1//1 56//1 55//1
f 1//1 57//1 56//1
f 1//1 58//1 57//1
f 1//1 59//1 58//1
f 1//1 60//1 59//1
f 1//1 61//1 60//1
f 1//1 62//1 61//1
f 1//1 63//1 62//1
f 1//1 64//1 63//1
f 1//1 65//1 64//1
f 1//1 66//1 65//1
f 1//1 67//1 66//1
f 1//1 68//1 67//1
f 1//1 69//1 68//1
f 1//1 70//1 69//1
f 1//1 71//1 70//1
f 1//1 72//1 71//1
f 1//1 73//1 72//1
f 1//1 74//1 73//1
f 1//1 75//1 74//1
f 1//1 76//1 75//1
f 1//1 77//1 76//1
f 1//1 78//1 77//1
f 1//1 79//1 78//1
f 1//1 80//1 79//1
f 1//1 81//1 80//1
f 1//1 82//1 81//1
f 1//1 83//1 82//1
f 1//1 84//1 83//1
f 1//1 85//1 84//1
f 1//1 86//1 85//1
f 1//1 87//1 86//1
f 1//1 88//1 87//1
f 1//1 89//1 88//1
f 1//1 90//1 89//1
f 1//1 91//1 90//1
f 1//1 92//1 91//1
f 1//1 93//1 92//1
f 1//1 94//1 93//1
f 1//1 95//1 94//1
f 1//1 96//1 95//1
f 1//1 97//1 96//1
f 1//1 98//1 97//1
f 1//1 99//1 98//1
f 1//1 100//1 99//1
f 1//1 101//1 100//1
f 1//1 102//1 101//1
f 1//1 103//1 102//1
f 1//1 104//1 103//1
f 1//1 105//1 104//1
f 1//1 106//1 105//1
f 1//1 107//1 106//1
f 1//1 108//1 107//1
f 1//1 109//1 108//1
f 1//1 110//1 109//1
f 1//1 111//1 110//1
f 1//1 112//1 111//1
f 1//1 113//1 112//1
f 1//1 114//1 113//1
f 1//1 115//1 114//1
f 1//1 116//1 115//1
f 1//1 117//1 116//1
f 1//1 118//1 117//1
f 1//1 119//1 118//1
f 1//1 120//1 119//1
f 1//1 121//1 120//1
f 1//1 122//1 121//1
f 1//1 123//1 122//1
f 1//1 124//1 123//1
f 1//1 125//1 124//1
f 1//1 126//1 125//1
f 1//1 127//1 126//1
f 1//1 128//1 127//1
f 1//1 129//1 128//1
f 1//1 130//1 129//1
f 1//1 131//1 130//1
f 1//1 132//1 131//1
f 1//1 133//1 132//1
f 1//1 134//1 133//1
f 1//1 135//1 134//1
f 1//1 136//1 135//1
f 1//1 137//1 136//1
f 1//1 138//1 137//1
f 1//1 139//1 138//1
f 1//1 140//1 139//1
f 1//1 141//1 140//1
f 1//1 142//1 141//1
f 1//1 143//1 142//1
f 1//1 144//1 143//1
f 1//1 145//1 144//1
f 1//1 146//1 145//1
f 1//1 147//1 146//1
f 1//1 148//1 147//1
f 1//1 149//1 148//1
f 1//1 150//1 149//1
f 1//1 151//1 150//1
f 1//1 152//1 151//1
f 1//1 153//1 152//1
f 1//1 154//1 153//1
f 1//1 155//1 154//1
f 1//1 156//1 155//1
f 1//1 157//1 156//1
f 1//1 158//1 157//1
f 1//1 159//1 158//1
f 1//1 160//1 159//1
f 1//1 161//1 160//1
f 1//1 162//1 161//1
f 1//1 163//1 162//1
f 1//1 164//1 163//1
f 1//1 165//1 164//1
f 1//1 166//1 165//1
f 1//1 167//1 166//1
f 1//1 168//1 167//1
f 1//1 169//1 168//1
f 1//1 170//1 169//1
f 1//1 171//1 170//1
f 1//1 172//1 171//1
f 1//1 173//1 172//1
f 1//1 174//1 173//1
f 1//1 175//1 174//1
f 1//1 176//1 175//1
f 1//1 177//1 176//1
f 1//1 178//1 177//1
f 1//1 179//1 178//1
f 1//1 180//1 179//1
f 1//1 181//1 180//1
f 1//1 182//1 181//1
f 1//1 183//1 182//1
f 1//1 184//1 183//1
f 1//1 185//1 184//1
f 1//1 186//1 185//1
f 1//1 187//1 186//1
f 1//1 188//1 187//1
f 1//1 189//1 188//1
f 1//1 190//1 189//1
f 1//1 191//1 190//1
f 1//1 192//1 191//1
f 1//1 193//1 192//1
f 1//1 194//1 193//1
f 1//1 195//1 194//1
f 1//1 196//1 195//1
f 1//1 197//1 196//1
f 1//1 198//1 197//1
f 1//1 199//1 198//1
f 1//1 200//1 199//1
f 1//1 201//1 200//1
f 1//1 202//1 201//1
f 1//1 203//1 202//1
f 1//1 204//1 203//1
f 1//1 205//1 204//1
f 1//1 206//1 205//1
f 1//1 207//1 206//1
f 1//1 208//1 207//1
f 1//1 209//1 208//1
f 1//1 210//1 209//1
f 1//1 211//1 210//1
f 1//1 212//1 211//1
f 1//1 213//1 212//1
f 1//1 214//1 213//1
f 1//1 215//1 214//1
f 1//1 216//1 215//1
f 1//1 217//1 216//1
f 1//1 218//1 217//1
f 1//1 219//1 218//1
f 1//1 220//1 219//1
f 1//1 221//1 220//1
f 1//1 222//1 221//1
f 1//1 223//1 222//1
f 1//1 224//1 223//1
f 1//1 225//1 224//1
f 1//1 226//1 225//1
f 1//1 227//1 226//1
f 1//1 228//1 227//1
f 1//1 229//1 228//1
f 1//1 230//1 229//1
f 1//1 231//1 230//1
f 1//1 232//1 231//1
f 1//1 233//1 232//1
f 1//1 234//1 233//1
f 1//1 235//1 234//1
f 1//1 236//1 235//1
f 1//1 237//1 236//1
f 1//1 238//1 237//1
f 1//1 239//1 238//1
f 1//1 240//1 239//1
f 1//1 241//1 240//1
f 1//1 242//1 241//1
f 1//1 243//1 242//1
f 1//1 244//1 243//1
f 1//1 245//1 244//1
f 1//1 246//1 245//1
f 1//1 247//1 246//1
f 1//1 248//1 247//1
f 1//1 249//1 248//1
f 1//1 250//1 249//1
f 1//1 251//1 250//1
f 1//1 252//1 251//1
f 1//1 253//1 252//1
f 1//1 254//1 253//1
f 1//1 255//1 254//1
f 1//1 256//1 255//1
f 1//1 257//1 256//1
f 1//1 258//1 257//1
f 1//1 259//1 258//1
f 1//1 260//1 259//1
f 1//1 261//1 260//1
f 1//1 262//1 261//1
f 1//1 263//1 262//1
f 1//1 264//1 263//1
f 1//1 265//1 264//1
f 1//1 266//1 265//1
f 1//1 267//1 266//1
f 1//1 268//1 267//1
f 1//1 269//1 268//1
f 1//1 270//1 269//1
f 1//1 271//1 270//1
f 1//1 272//1 271//1
f 1//1 273//1 272//1
f 1//1 274//1 273//1
f 1//1 275//1 274//1
f 1//1 276//1 275//1
f 1//1 277//1 276//1
f 1//1 278//1 277//1
f 1//1 279//1 278//1
f 1//1 280//1 279//1
f 1//1 281//1 280//1
f 1//1 282//1 281//1
f 1//1 283//1 282//1
f 1//1 284//1 283//1
f 1//1 285//1 284//1
f 1//1 286//1 285//1
f 1//1 287//1 286//1
f 1//1 288//1 287//1
f 1//1 289//1 288//1
f 1//1 290//1 289//1
f 1//1 291//1 290//1
f 1//1 292//1 291//1
f 1//1 293//1 292//1
f 1//1 294//1 293//1
f 1//1 295//1 294//1
f 1//1 296//1 295//1
f 1//1 297//1 296//1
f 1//1 298//1 297//1
f 1//1 299//1 298//1
f 1//1 300//1 299//1
f 1//1 301//1 300//1
f 1//1 302//1 301//1
f 1//1 303//1 302//1
f 1//1 304//1 303//1
f 1//1 305//1 304//1
f 1//1 306//1 305//1
f 1//1 307//1 306//1
f 1//1 308//1 307//1
f 1//1 309//1 308//1
f 1//1 310//1 309//1
f 1//1 311//1 310//1
f 1//1 312//1 311//1
f 1//1 313//1 312//1
f 1//1 314//1 313//1
f 1//1 315//1 314//1
f 1//1 316//1 315//1
f 1//1 317//1 316//1
f 1//1 318//1 317//1
f 1//1 319//1 318//1
f 1//1 320//1 319//1
f 1//1 321//1 320//1
f 1//1 322//1 321//1
f 1//1 323//1 322//1
f 1//1 324//1 323//1
f 1//1 325//1 324//1
f 1//1 326//1 325//1
f 1//1 327//1 326//1
f 1//1 328//1 327//1
f 1//1 329//1 328//1
f 1//1 330//1 329//1
f 1//1 331//1 330//1
f 1//1 332//1 331//1
f 1//1 333//1 332//1
f 1//1 334//1 333//1
f 1//1 335//1 334//1
f 1//1 336//1 335//1
f 1//1 337//1 336//1
f 1//1 338//1 337//1
f 1//1 339//1 338//1
f 1//1 340//1 339//1
f 1//1 341//1 340//1
f 1//1 342//1 341//1
f 1//1 343//1 342//1
f 1//1 344//1 343//1
f 1//1 345//1 344//1
f 1//1 346//1 345//1
f 1//1 347//1 346//1
f 1//1 348//1 347//1
f 1//1 349//1 348//1
f 1//1 350//1 349//1
f 1//1 351//1 350//1
f 1//1 352//1 351//1
f 1//1 353//1 352//1
f 1//1 354//1 353//1
f 1//1 355//1 354//1
f 1//1 356//1 355//1
f 1//1 357//1 356//1
f 1//1 358//1 357//1
f 1//1 359//1 358//1
f 1//1 360//1 359//1
f 1//1 361//1 360//1
f 1//1 2//1 361//1
